<mxfile host="65bd71144e" scale="2" border="0">
    <diagram id="v-0AqRLD-XcEVxHQy5Km" name="Page-1">
        <mxGraphModel dx="631" dy="431" grid="1" gridSize="10" guides="1" tooltips="1" connect="1" arrows="1" fold="1" page="1" pageScale="1" pageWidth="583" pageHeight="827" math="0" shadow="0">
            <root>
                <mxCell id="0"/>
                <mxCell id="1" parent="0"/>
                <mxCell id="22" value="" style="group;fontFamily=Courier New;" vertex="1" connectable="0" parent="1">
                    <mxGeometry x="180" y="40" width="20" height="20" as="geometry"/>
                </mxCell>
                <mxCell id="20" value="" style="whiteSpace=wrap;html=1;rounded=0;shadow=0;glass=0;sketch=0;strokeColor=#666666;strokeWidth=1;fillColor=#f5f5f5;gradientDirection=south;fontColor=#333333;fontFamily=Courier New;" vertex="1" parent="22">
                    <mxGeometry width="20" height="20" as="geometry"/>
                </mxCell>
                <mxCell id="21" value="" style="whiteSpace=wrap;html=1;rounded=0;shadow=0;glass=0;sketch=0;strokeColor=none;strokeWidth=1;fillColor=none;gradientDirection=south;fontFamily=Courier New;" vertex="1" parent="22">
                    <mxGeometry y="10" width="20" height="10" as="geometry"/>
                </mxCell>
                <mxCell id="2" value="a" style="text;html=1;align=center;verticalAlign=middle;resizable=0;points=[];autosize=1;strokeColor=none;fillColor=none;fontFamily=Courier New;" parent="1" vertex="1">
                    <mxGeometry x="60" y="20" width="20" height="20" as="geometry"/>
                </mxCell>
                <mxCell id="4" value="racine" style="whiteSpace=wrap;html=1;fillColor=none;strokeColor=none;fontFamily=Courier New;fontSize=10;align=left;" parent="1" vertex="1">
                    <mxGeometry x="140" y="40" width="40" height="20" as="geometry"/>
                </mxCell>
                <mxCell id="5" value="Arbre" style="whiteSpace=wrap;html=1;fillColor=#dae8fc;strokeColor=#6c8ebf;fontFamily=Courier New;" parent="1" vertex="1">
                    <mxGeometry x="140" y="20" width="60" height="20" as="geometry"/>
                </mxCell>
                <mxCell id="26" value="" style="group;fontFamily=Courier New;" vertex="1" connectable="0" parent="1">
                    <mxGeometry x="80" y="20" width="20" height="20" as="geometry"/>
                </mxCell>
                <mxCell id="27" value="" style="whiteSpace=wrap;html=1;rounded=0;shadow=0;glass=0;sketch=0;strokeColor=#666666;strokeWidth=1;fillColor=#f5f5f5;gradientDirection=south;fontColor=#333333;fontFamily=Courier New;" vertex="1" parent="26">
                    <mxGeometry width="20" height="20" as="geometry"/>
                </mxCell>
                <mxCell id="28" value="" style="whiteSpace=wrap;html=1;rounded=0;shadow=0;glass=0;sketch=0;strokeColor=none;strokeWidth=1;fillColor=none;gradientDirection=south;fontFamily=Courier New;" vertex="1" parent="26">
                    <mxGeometry y="10" width="20" height="10" as="geometry"/>
                </mxCell>
                <mxCell id="30" style="edgeStyle=none;html=1;exitX=0.5;exitY=0;exitDx=0;exitDy=0;entryX=0;entryY=0.5;entryDx=0;entryDy=0;endArrow=classic;endFill=1;strokeColor=default;startArrow=oval;startFill=1;fontFamily=Courier New;" edge="1" parent="1" source="28" target="5">
                    <mxGeometry relative="1" as="geometry"/>
                </mxCell>
                <mxCell id="31" value="" style="group;fontFamily=Courier New;" vertex="1" connectable="0" parent="1">
                    <mxGeometry x="280" y="60" width="20" height="20" as="geometry"/>
                </mxCell>
                <mxCell id="32" value="3" style="whiteSpace=wrap;html=1;rounded=0;shadow=0;glass=0;sketch=0;strokeColor=#666666;strokeWidth=1;fillColor=#f5f5f5;gradientDirection=south;fontColor=#333333;fontFamily=Courier New;" vertex="1" parent="31">
                    <mxGeometry width="20" height="20" as="geometry"/>
                </mxCell>
                <mxCell id="33" value="" style="whiteSpace=wrap;html=1;rounded=0;shadow=0;glass=0;sketch=0;strokeColor=none;strokeWidth=1;fillColor=none;gradientDirection=south;fontFamily=Courier New;" vertex="1" parent="31">
                    <mxGeometry y="10" width="20" height="10" as="geometry"/>
                </mxCell>
                <mxCell id="34" value="valeur" style="whiteSpace=wrap;html=1;fillColor=none;strokeColor=none;fontFamily=Courier New;fontSize=10;align=left;" vertex="1" parent="1">
                    <mxGeometry x="240" y="60" width="40" height="20" as="geometry"/>
                </mxCell>
                <mxCell id="35" value="Noeud" style="whiteSpace=wrap;html=1;fillColor=#d5e8d4;strokeColor=#82b366;fontFamily=Courier New;" vertex="1" parent="1">
                    <mxGeometry x="240" y="40" width="60" height="20" as="geometry"/>
                </mxCell>
                <mxCell id="36" value="" style="group;fontFamily=Courier New;" vertex="1" connectable="0" parent="1">
                    <mxGeometry x="280" y="80" width="20" height="20" as="geometry"/>
                </mxCell>
                <mxCell id="37" value="" style="whiteSpace=wrap;html=1;rounded=0;shadow=0;glass=0;sketch=0;strokeColor=#666666;strokeWidth=1;fillColor=#f5f5f5;gradientDirection=south;fontColor=#333333;fontFamily=Courier New;" vertex="1" parent="36">
                    <mxGeometry width="20" height="20" as="geometry"/>
                </mxCell>
                <mxCell id="38" value="" style="whiteSpace=wrap;html=1;rounded=0;shadow=0;glass=0;sketch=0;strokeColor=none;strokeWidth=1;fillColor=none;gradientDirection=south;fontFamily=Courier New;" vertex="1" parent="36">
                    <mxGeometry y="10" width="20" height="10" as="geometry"/>
                </mxCell>
                <mxCell id="39" value="gauche" style="whiteSpace=wrap;html=1;fillColor=none;strokeColor=none;fontFamily=Courier New;fontSize=10;align=left;" vertex="1" parent="1">
                    <mxGeometry x="240" y="80" width="40" height="20" as="geometry"/>
                </mxCell>
                <mxCell id="40" value="" style="group;fontFamily=Courier New;" vertex="1" connectable="0" parent="1">
                    <mxGeometry x="280" y="100" width="20" height="20" as="geometry"/>
                </mxCell>
                <mxCell id="41" value="" style="whiteSpace=wrap;html=1;rounded=0;shadow=0;glass=0;sketch=0;strokeColor=#666666;strokeWidth=1;fillColor=#f5f5f5;gradientDirection=south;fontColor=#333333;fontFamily=Courier New;" vertex="1" parent="40">
                    <mxGeometry width="20" height="20" as="geometry"/>
                </mxCell>
                <mxCell id="42" value="" style="whiteSpace=wrap;html=1;rounded=0;shadow=0;glass=0;sketch=0;strokeColor=none;strokeWidth=1;fillColor=none;gradientDirection=south;fontFamily=Courier New;" vertex="1" parent="40">
                    <mxGeometry y="10" width="20" height="10" as="geometry"/>
                </mxCell>
                <mxCell id="43" value="droit" style="whiteSpace=wrap;html=1;fillColor=none;strokeColor=none;fontFamily=Courier New;fontSize=10;align=left;" vertex="1" parent="1">
                    <mxGeometry x="240" y="100" width="40" height="20" as="geometry"/>
                </mxCell>
                <mxCell id="44" value="" style="group;fontFamily=Courier New;" vertex="1" connectable="0" parent="1">
                    <mxGeometry x="190" y="130" width="20" height="20" as="geometry"/>
                </mxCell>
                <mxCell id="45" value="3" style="whiteSpace=wrap;html=1;rounded=0;shadow=0;glass=0;sketch=0;strokeColor=#666666;strokeWidth=1;fillColor=#f5f5f5;gradientDirection=south;fontColor=#333333;fontFamily=Courier New;" vertex="1" parent="44">
                    <mxGeometry width="20" height="20" as="geometry"/>
                </mxCell>
                <mxCell id="46" value="" style="whiteSpace=wrap;html=1;rounded=0;shadow=0;glass=0;sketch=0;strokeColor=none;strokeWidth=1;fillColor=none;gradientDirection=south;fontFamily=Courier New;" vertex="1" parent="44">
                    <mxGeometry y="10" width="20" height="10" as="geometry"/>
                </mxCell>
                <mxCell id="47" value="valeur" style="whiteSpace=wrap;html=1;fillColor=none;strokeColor=none;fontFamily=Courier New;fontSize=10;align=left;" vertex="1" parent="1">
                    <mxGeometry x="150" y="130" width="40" height="20" as="geometry"/>
                </mxCell>
                <mxCell id="48" value="Noeud" style="whiteSpace=wrap;html=1;fillColor=#d5e8d4;strokeColor=#82b366;fontFamily=Courier New;" vertex="1" parent="1">
                    <mxGeometry x="150" y="110" width="60" height="20" as="geometry"/>
                </mxCell>
                <mxCell id="49" value="" style="group;fontFamily=Courier New;" vertex="1" connectable="0" parent="1">
                    <mxGeometry x="190" y="150" width="20" height="20" as="geometry"/>
                </mxCell>
                <mxCell id="50" value="" style="whiteSpace=wrap;html=1;rounded=0;shadow=0;glass=0;sketch=0;strokeColor=#666666;strokeWidth=1;fillColor=#f5f5f5;gradientDirection=south;fontColor=#333333;fontFamily=Courier New;" vertex="1" parent="49">
                    <mxGeometry width="20" height="20" as="geometry"/>
                </mxCell>
                <mxCell id="51" value="" style="whiteSpace=wrap;html=1;rounded=0;shadow=0;glass=0;sketch=0;strokeColor=none;strokeWidth=1;fillColor=none;gradientDirection=south;fontFamily=Courier New;" vertex="1" parent="49">
                    <mxGeometry y="10" width="20" height="10" as="geometry"/>
                </mxCell>
                <mxCell id="99" value="" style="group;fontFamily=Courier New;verticalAlign=top;" vertex="1" connectable="0" parent="49">
                    <mxGeometry width="20" height="20" as="geometry"/>
                </mxCell>
                <mxCell id="100" value="&lt;span style=&quot;font-size: 6px; font-weight: 700;&quot;&gt;None&lt;/span&gt;" style="whiteSpace=wrap;html=1;rounded=0;shadow=0;glass=0;sketch=0;strokeColor=#666666;strokeWidth=1;fillColor=#f5f5f5;gradientDirection=south;fontColor=#333333;fontFamily=Courier New;verticalAlign=middle;labelPosition=center;verticalLabelPosition=middle;align=center;fontSize=6;" vertex="1" parent="99">
                    <mxGeometry width="20" height="20" as="geometry"/>
                </mxCell>
                <mxCell id="101" value="" style="whiteSpace=wrap;html=1;rounded=0;shadow=0;glass=0;sketch=0;strokeColor=none;strokeWidth=1;fillColor=none;gradientDirection=south;fontFamily=Courier New;" vertex="1" parent="99">
                    <mxGeometry y="10" width="20" height="10" as="geometry"/>
                </mxCell>
                <mxCell id="52" value="gauche" style="whiteSpace=wrap;html=1;fillColor=none;strokeColor=none;fontFamily=Courier New;fontSize=10;align=left;" vertex="1" parent="1">
                    <mxGeometry x="150" y="150" width="40" height="20" as="geometry"/>
                </mxCell>
                <mxCell id="53" value="" style="group;fontFamily=Courier New;" vertex="1" connectable="0" parent="1">
                    <mxGeometry x="190" y="170" width="20" height="20" as="geometry"/>
                </mxCell>
                <mxCell id="54" value="" style="whiteSpace=wrap;html=1;rounded=0;shadow=0;glass=0;sketch=0;strokeColor=#666666;strokeWidth=1;fillColor=#f5f5f5;gradientDirection=south;fontColor=#333333;fontFamily=Courier New;" vertex="1" parent="53">
                    <mxGeometry width="20" height="20" as="geometry"/>
                </mxCell>
                <mxCell id="55" value="" style="whiteSpace=wrap;html=1;rounded=0;shadow=0;glass=0;sketch=0;strokeColor=none;strokeWidth=1;fillColor=none;gradientDirection=south;fontFamily=Courier New;" vertex="1" parent="53">
                    <mxGeometry y="10" width="20" height="10" as="geometry"/>
                </mxCell>
                <mxCell id="56" value="droit" style="whiteSpace=wrap;html=1;fillColor=none;strokeColor=none;fontFamily=Courier New;fontSize=10;align=left;" vertex="1" parent="1">
                    <mxGeometry x="150" y="170" width="40" height="20" as="geometry"/>
                </mxCell>
                <mxCell id="57" value="" style="group;fontFamily=Courier New;" vertex="1" connectable="0" parent="1">
                    <mxGeometry x="370" y="130" width="20" height="20" as="geometry"/>
                </mxCell>
                <mxCell id="58" value="3" style="whiteSpace=wrap;html=1;rounded=0;shadow=0;glass=0;sketch=0;strokeColor=#666666;strokeWidth=1;fillColor=#f5f5f5;gradientDirection=south;fontColor=#333333;fontFamily=Courier New;" vertex="1" parent="57">
                    <mxGeometry width="20" height="20" as="geometry"/>
                </mxCell>
                <mxCell id="59" value="" style="whiteSpace=wrap;html=1;rounded=0;shadow=0;glass=0;sketch=0;strokeColor=none;strokeWidth=1;fillColor=none;gradientDirection=south;fontFamily=Courier New;" vertex="1" parent="57">
                    <mxGeometry y="10" width="20" height="10" as="geometry"/>
                </mxCell>
                <mxCell id="60" value="valeur" style="whiteSpace=wrap;html=1;fillColor=none;strokeColor=none;fontFamily=Courier New;fontSize=10;align=left;" vertex="1" parent="1">
                    <mxGeometry x="330" y="130" width="40" height="20" as="geometry"/>
                </mxCell>
                <mxCell id="61" value="Noeud" style="whiteSpace=wrap;html=1;fillColor=#d5e8d4;strokeColor=#82b366;fontFamily=Courier New;" vertex="1" parent="1">
                    <mxGeometry x="330" y="110" width="60" height="20" as="geometry"/>
                </mxCell>
                <mxCell id="65" value="gauche" style="whiteSpace=wrap;html=1;fillColor=none;strokeColor=none;fontFamily=Courier New;fontSize=10;align=left;" vertex="1" parent="1">
                    <mxGeometry x="330" y="150" width="40" height="20" as="geometry"/>
                </mxCell>
                <mxCell id="66" value="" style="group;fontFamily=Courier New;verticalAlign=top;" vertex="1" connectable="0" parent="1">
                    <mxGeometry x="370" y="170" width="20" height="20" as="geometry"/>
                </mxCell>
                <mxCell id="67" value="&lt;span style=&quot;font-size: 6px; font-weight: 700;&quot;&gt;None&lt;/span&gt;" style="whiteSpace=wrap;html=1;rounded=0;shadow=0;glass=0;sketch=0;strokeColor=#666666;strokeWidth=1;fillColor=#f5f5f5;gradientDirection=south;fontColor=#333333;fontFamily=Courier New;verticalAlign=middle;labelPosition=center;verticalLabelPosition=middle;align=center;fontSize=6;" vertex="1" parent="66">
                    <mxGeometry width="20" height="20" as="geometry"/>
                </mxCell>
                <mxCell id="68" value="" style="whiteSpace=wrap;html=1;rounded=0;shadow=0;glass=0;sketch=0;strokeColor=none;strokeWidth=1;fillColor=none;gradientDirection=south;fontFamily=Courier New;" vertex="1" parent="66">
                    <mxGeometry y="10" width="20" height="10" as="geometry"/>
                </mxCell>
                <mxCell id="69" value="droit" style="whiteSpace=wrap;html=1;fillColor=none;strokeColor=none;fontFamily=Courier New;fontSize=10;align=left;" vertex="1" parent="1">
                    <mxGeometry x="330" y="170" width="40" height="20" as="geometry"/>
                </mxCell>
                <mxCell id="70" value="" style="group;fontFamily=Courier New;" vertex="1" connectable="0" parent="1">
                    <mxGeometry x="280" y="210" width="20" height="20" as="geometry"/>
                </mxCell>
                <mxCell id="71" value="3" style="whiteSpace=wrap;html=1;rounded=0;shadow=0;glass=0;sketch=0;strokeColor=#666666;strokeWidth=1;fillColor=#f5f5f5;gradientDirection=south;fontColor=#333333;fontFamily=Courier New;" vertex="1" parent="70">
                    <mxGeometry width="20" height="20" as="geometry"/>
                </mxCell>
                <mxCell id="72" value="" style="whiteSpace=wrap;html=1;rounded=0;shadow=0;glass=0;sketch=0;strokeColor=none;strokeWidth=1;fillColor=none;gradientDirection=south;fontFamily=Courier New;" vertex="1" parent="70">
                    <mxGeometry y="10" width="20" height="10" as="geometry"/>
                </mxCell>
                <mxCell id="73" value="valeur" style="whiteSpace=wrap;html=1;fillColor=none;strokeColor=none;fontFamily=Courier New;fontSize=10;align=left;" vertex="1" parent="1">
                    <mxGeometry x="240" y="210" width="40" height="20" as="geometry"/>
                </mxCell>
                <mxCell id="74" value="Noeud" style="whiteSpace=wrap;html=1;fillColor=#d5e8d4;strokeColor=#82b366;fontFamily=Courier New;" vertex="1" parent="1">
                    <mxGeometry x="240" y="190" width="60" height="20" as="geometry"/>
                </mxCell>
                <mxCell id="75" value="" style="group;fontFamily=Courier New;" vertex="1" connectable="0" parent="1">
                    <mxGeometry x="280" y="230" width="20" height="20" as="geometry"/>
                </mxCell>
                <mxCell id="76" value="" style="whiteSpace=wrap;html=1;rounded=0;shadow=0;glass=0;sketch=0;strokeColor=#666666;strokeWidth=1;fillColor=#f5f5f5;gradientDirection=south;fontColor=#333333;fontFamily=Courier New;" vertex="1" parent="75">
                    <mxGeometry width="20" height="20" as="geometry"/>
                </mxCell>
                <mxCell id="77" value="" style="whiteSpace=wrap;html=1;rounded=0;shadow=0;glass=0;sketch=0;strokeColor=none;strokeWidth=1;fillColor=none;gradientDirection=south;fontFamily=Courier New;" vertex="1" parent="75">
                    <mxGeometry y="10" width="20" height="10" as="geometry"/>
                </mxCell>
                <mxCell id="93" value="" style="group;fontFamily=Courier New;verticalAlign=top;" vertex="1" connectable="0" parent="75">
                    <mxGeometry width="20" height="20" as="geometry"/>
                </mxCell>
                <mxCell id="94" value="&lt;span style=&quot;font-size: 6px; font-weight: 700;&quot;&gt;None&lt;/span&gt;" style="whiteSpace=wrap;html=1;rounded=0;shadow=0;glass=0;sketch=0;strokeColor=#666666;strokeWidth=1;fillColor=#f5f5f5;gradientDirection=south;fontColor=#333333;fontFamily=Courier New;verticalAlign=middle;labelPosition=center;verticalLabelPosition=middle;align=center;fontSize=6;" vertex="1" parent="93">
                    <mxGeometry width="20" height="20" as="geometry"/>
                </mxCell>
                <mxCell id="95" value="" style="whiteSpace=wrap;html=1;rounded=0;shadow=0;glass=0;sketch=0;strokeColor=none;strokeWidth=1;fillColor=none;gradientDirection=south;fontFamily=Courier New;" vertex="1" parent="93">
                    <mxGeometry y="10" width="20" height="10" as="geometry"/>
                </mxCell>
                <mxCell id="78" value="gauche" style="whiteSpace=wrap;html=1;fillColor=none;strokeColor=none;fontFamily=Courier New;fontSize=10;align=left;" vertex="1" parent="1">
                    <mxGeometry x="240" y="230" width="40" height="20" as="geometry"/>
                </mxCell>
                <mxCell id="79" value="" style="group;fontFamily=Courier New;" vertex="1" connectable="0" parent="1">
                    <mxGeometry x="280" y="250" width="20" height="20" as="geometry"/>
                </mxCell>
                <mxCell id="80" value="" style="whiteSpace=wrap;html=1;rounded=0;shadow=0;glass=0;sketch=0;strokeColor=#666666;strokeWidth=1;fillColor=#f5f5f5;gradientDirection=south;fontColor=#333333;fontFamily=Courier New;" vertex="1" parent="79">
                    <mxGeometry width="20" height="20" as="geometry"/>
                </mxCell>
                <mxCell id="81" value="" style="whiteSpace=wrap;html=1;rounded=0;shadow=0;glass=0;sketch=0;strokeColor=none;strokeWidth=1;fillColor=none;gradientDirection=south;fontFamily=Courier New;" vertex="1" parent="79">
                    <mxGeometry y="10" width="20" height="10" as="geometry"/>
                </mxCell>
                <mxCell id="96" value="" style="group;fontFamily=Courier New;verticalAlign=top;" vertex="1" connectable="0" parent="79">
                    <mxGeometry width="20" height="20" as="geometry"/>
                </mxCell>
                <mxCell id="97" value="&lt;span style=&quot;font-size: 6px; font-weight: 700;&quot;&gt;None&lt;/span&gt;" style="whiteSpace=wrap;html=1;rounded=0;shadow=0;glass=0;sketch=0;strokeColor=#666666;strokeWidth=1;fillColor=#f5f5f5;gradientDirection=south;fontColor=#333333;fontFamily=Courier New;verticalAlign=middle;labelPosition=center;verticalLabelPosition=middle;align=center;fontSize=6;" vertex="1" parent="96">
                    <mxGeometry width="20" height="20" as="geometry"/>
                </mxCell>
                <mxCell id="98" value="" style="whiteSpace=wrap;html=1;rounded=0;shadow=0;glass=0;sketch=0;strokeColor=none;strokeWidth=1;fillColor=none;gradientDirection=south;fontFamily=Courier New;" vertex="1" parent="96">
                    <mxGeometry y="10" width="20" height="10" as="geometry"/>
                </mxCell>
                <mxCell id="82" value="droit" style="whiteSpace=wrap;html=1;fillColor=none;strokeColor=none;fontFamily=Courier New;fontSize=10;align=left;" vertex="1" parent="1">
                    <mxGeometry x="240" y="250" width="40" height="20" as="geometry"/>
                </mxCell>
                <mxCell id="83" style="edgeStyle=none;html=1;exitX=0.5;exitY=0;exitDx=0;exitDy=0;entryX=1;entryY=0.5;entryDx=0;entryDy=0;fontFamily=Courier New;fontSize=10;startArrow=oval;startFill=1;endArrow=classic;endFill=1;strokeColor=default;" edge="1" parent="1" source="38" target="48">
                    <mxGeometry relative="1" as="geometry"/>
                </mxCell>
                <mxCell id="84" style="edgeStyle=none;html=1;exitX=0.5;exitY=0;exitDx=0;exitDy=0;entryX=0;entryY=0.5;entryDx=0;entryDy=0;fontFamily=Courier New;fontSize=10;startArrow=oval;startFill=1;endArrow=classic;endFill=1;strokeColor=default;" edge="1" parent="1" source="42" target="61">
                    <mxGeometry relative="1" as="geometry"/>
                </mxCell>
                <mxCell id="85" style="edgeStyle=none;html=1;exitX=0.5;exitY=0;exitDx=0;exitDy=0;entryX=0;entryY=0.5;entryDx=0;entryDy=0;fontFamily=Courier New;fontSize=10;startArrow=oval;startFill=1;endArrow=classic;endFill=1;strokeColor=default;" edge="1" parent="1" source="55" target="74">
                    <mxGeometry relative="1" as="geometry"/>
                </mxCell>
                <mxCell id="86" style="edgeStyle=none;html=1;exitX=0.5;exitY=0;exitDx=0;exitDy=0;entryX=0;entryY=0.5;entryDx=0;entryDy=0;fontFamily=Courier New;fontSize=10;startArrow=oval;startFill=1;endArrow=classic;endFill=1;strokeColor=default;" edge="1" parent="1" source="21" target="35">
                    <mxGeometry relative="1" as="geometry"/>
                </mxCell>
                <mxCell id="87" value="" style="group;fontFamily=Courier New;verticalAlign=top;" vertex="1" connectable="0" parent="1">
                    <mxGeometry x="370" y="150" width="20" height="20" as="geometry"/>
                </mxCell>
                <mxCell id="88" value="&lt;span style=&quot;font-size: 6px; font-weight: 700;&quot;&gt;None&lt;/span&gt;" style="whiteSpace=wrap;html=1;rounded=0;shadow=0;glass=0;sketch=0;strokeColor=#666666;strokeWidth=1;fillColor=#f5f5f5;gradientDirection=south;fontColor=#333333;fontFamily=Courier New;verticalAlign=middle;labelPosition=center;verticalLabelPosition=middle;align=center;fontSize=6;" vertex="1" parent="87">
                    <mxGeometry width="20" height="20" as="geometry"/>
                </mxCell>
                <mxCell id="89" value="" style="whiteSpace=wrap;html=1;rounded=0;shadow=0;glass=0;sketch=0;strokeColor=none;strokeWidth=1;fillColor=none;gradientDirection=south;fontFamily=Courier New;" vertex="1" parent="87">
                    <mxGeometry y="10" width="20" height="10" as="geometry"/>
                </mxCell>
            </root>
        </mxGraphModel>
    </diagram>
</mxfile>